# xmcd
# 
# Track frame offsets:
#     150
#     21385
#     31141
#     48868
#     62432
#     71631
#     86754
#     87733
#     101054
#     111265
#     127436
#     140358
# 
# Disc length: 2045
# 
# Revision: 0
# Processed by: cddbd v1.5.2PL0 Copyright (c) Steve Scherf et al.
# Submitted via: fre:ac v1.0.27
# 
DISCID=ae07fb0c
DTITLE=Mike Morgan and The Crawl - Blues Jam Live Audio: Mike Morgan and The Crawl
DYEAR=2010
DGENRE=Blues
TTITLE0=Intro
TTITLE1=Tell Me You Want To Stay
TTITLE2=A Million Tears
TTITLE3=Am I Wrong (Keb Mo)
TTITLE4=Angelina (Keb Mo)
TTITLE5=Just The Kind Of Man I Am
TTITLE6=Don't Know How Much I Love You
TTITLE7=Losing Ground
TTITLE8=You're On My Mind
TTITLE9=Low Downest
TTITLE10=Ain't Worried No More
TTITLE11=Outro
EXTD=
EXTT0=
EXTT1=
EXTT2=
EXTT3=
EXTT4=
EXTT5=
EXTT6=
EXTT7=
EXTT8=
EXTT9=
EXTT10=
EXTT11=
PLAYORDER=
